<svg xmlns="http://www.w3.org/2000/svg" width="640" height="320" viewBox="0 0 640 320">
  <defs>
    <linearGradient id="bg" x1="0" y1="0" x2="1" y2="1">
      <stop offset="0" stop-color="#047857"/>
      <stop offset="0.55" stop-color="#0d9488"/>
      <stop offset="1" stop-color="#0284c7"/>
    </linearGradient>
    <radialGradient id="glow" cx="0.5" cy="0.5" r="0.5">
      <stop offset="0" stop-color="#ffffff" stop-opacity="0.16"/>
      <stop offset="1" stop-color="#ffffff" stop-opacity="0"/>
    </radialGradient>
  </defs>

  <rect width="640" height="320" fill="url(#bg)"/>
  <rect width="640" height="320" fill="url(#glow)"/>

  <g fill="#ffffff" opacity="0.85">
    <rect x="108" y="78" width="4" height="34" rx="2"/>
    <rect x="119" y="86" width="4" height="26" rx="2"/>
    <rect x="130" y="80" width="4" height="32" rx="2"/>
    <rect x="141" y="88" width="4" height="24" rx="2"/>
    <rect x="152" y="76" width="4" height="36" rx="2"/>
  </g>

  <circle cx="150" cy="130" r="6" fill="#fbbf24"/>

  <circle cx="140" cy="104" r="50" fill="#a7f3d0" opacity="0.6"/>
  <circle cx="140" cy="104" r="40" fill="#ffffff"/>
  <path d="M124 104 l10 10 l22 -24" fill="none" stroke="#047857" stroke-width="8"
        stroke-linecap="round" stroke-linejoin="round"/>

  <ellipse cx="410" cy="282" rx="170" ry="10" fill="#022c22" opacity="0.4"/>

  <g>
    <ellipse cx="400" cy="198" rx="95" ry="7" fill="#022c22" opacity="0.45"/>
    <path d="M356 92 L500 92 L500 136 L356 136 Z" fill="#115e59"/>
    <path d="M356 82 L500 82 L500 96 L356 96 Z" fill="#134e4a"/>
    <path d="M356 92 L500 92 L500 136 L356 136 Z" fill="none" stroke="#0f766e" stroke-width="3"/>
    <rect x="414" y="82" width="16" height="14" fill="#fbbf24"/>
  </g>

  <g>
    <ellipse cx="440" cy="148" rx="110" ry="7" fill="#022c22" opacity="0.45"/>
    <path d="M352 102 L520 102 L520 144 L352 144 Z" fill="#0f766e"/>
    <path d="M352 90 L520 90 L520 106 L352 106 Z" fill="#115e59"/>
    <rect x="424" y="90" width="16" height="16" fill="#fbbf24"/>
    <path d="M352 102 L520 102 L520 144 L352 144 Z" fill="none" stroke="#0d9488" stroke-width="3"/>
  </g>

  <g>
    <ellipse cx="455" cy="232" rx="125" ry="7" fill="#022c22" opacity="0.45"/>
    <path d="M360 156 L544 156 L544 224 L360 224 Z" fill="#134e4a"/>
    <path d="M360 142 L544 142 L544 160 L360 160 Z" fill="#0f766e"/>
    <rect x="440" y="142" width="16" height="18" fill="#fbbf24"/>
    <path d="M360 156 L544 156 L544 224 L360 224 Z" fill="none" stroke="#115e59" stroke-width="3"/>
    <rect x="380" y="178" width="60" height="8" rx="4" fill="#a7f3d0" opacity="0.85"/>
    <rect x="380" y="196" width="40" height="8" rx="4" fill="#a7f3d0" opacity="0.6"/>
    <rect x="460" y="178" width="56" height="8" rx="4" fill="#a7f3d0" opacity="0.85"/>
    <rect x="460" y="196" width="36" height="8" rx="4" fill="#a7f3d0" opacity="0.6"/>
  </g>

  <path d="M510 60 a22 22 0 0 1 44 0" fill="none" stroke="#ffffff" stroke-width="7" stroke-linecap="round"/>
  <path d="M548 46 l14 -14" stroke="#ffffff" stroke-width="7" stroke-linecap="round"/>
</svg>
