<svg xmlns="http://www.w3.org/2000/svg" width="640" height="320" viewBox="0 0 640 320">
  <defs>
    <linearGradient id="bg" x1="0" y1="0" x2="1" y2="1">
      <stop offset="0" stop-color="#4c1d95"/>
      <stop offset="0.55" stop-color="#6d28d9"/>
      <stop offset="1" stop-color="#4338ca"/>
    </linearGradient>
    <radialGradient id="glow" cx="0.5" cy="0.5" r="0.5">
      <stop offset="0" stop-color="#ffffff" stop-opacity="0.15"/>
      <stop offset="1" stop-color="#ffffff" stop-opacity="0"/>
    </radialGradient>
  </defs>

  <rect width="640" height="320" fill="url(#bg)"/>
  <rect width="640" height="320" fill="url(#glow)"/>

  <g fill="#fbbf24" opacity="0.9">
    <circle cx="86" cy="52" r="4"/>
    <circle cx="140" cy="150" r="4"/>
    <circle cx="554" cy="58" r="4"/>
    <circle cx="510" cy="270" r="4"/>
    <circle cx="90" cy="270" r="4"/>
    <circle cx="590" cy="170" r="4"/>
  </g>

  <g transform="translate(320 160)">
    <circle r="150" fill="none" stroke="#fde68a" stroke-width="2.5" opacity="0.45"/>
    <circle r="132" fill="none" stroke="#ffffff" stroke-width="1.5" opacity="0.5"/>

    <g fill="#fbbf24">
      <circle cx="0" cy="-120" r="5"/>
      <circle cx="60" cy="-103.9" r="5"/>
      <circle cx="103.9" cy="-60" r="5"/>
      <circle cx="120" cy="0" r="5"/>
      <circle cx="103.9" cy="60" r="5"/>
      <circle cx="60" cy="103.9" r="5"/>
      <circle cx="0" cy="120" r="5"/>
      <circle cx="-60" cy="103.9" r="5"/>
      <circle cx="-103.9" cy="60" r="5"/>
      <circle cx="-120" cy="0" r="5"/>
      <circle cx="-103.9" cy="-60" r="5"/>
      <circle cx="-60" cy="-103.9" r="5"/>
    </g>

    <g fill="none" stroke="#fde68a" stroke-width="3" opacity="0.75">
      <line x1="0" y1="-88" x2="0" y2="-116"/>
      <line x1="76.2" y1="-44" x2="100.4" y2="-58"/>
      <line x1="76.2" y1="44" x2="100.4" y2="58"/>
      <line x1="0" y1="88" x2="0" y2="116"/>
      <line x1="-76.2" y1="44" x2="-100.4" y2="58"/>
      <line x1="-76.2" y1="-44" x2="-100.4" y2="-58"/>
      <line x1="44" y1="-76.2" x2="58" y2="-100.4"/>
      <line x1="44" y1="76.2" x2="58" y2="100.4"/>
      <line x1="-44" y1="76.2" x2="-58" y2="100.4"/>
      <line x1="-44" y1="-76.2" x2="-58" y2="-100.4"/>
      <line x1="88" y1="0" x2="116" y2="0"/>
      <line x1="-88" y1="0" x2="-116" y2="0"/>
    </g>

    <g stroke="#ffffff" stroke-opacity="0.6" stroke-width="1.5">
      <ellipse cx="0" cy="-95" rx="17" ry="50" fill="#a78bfa" fill-opacity="0.9" transform="rotate(0)"/>
      <ellipse cx="0" cy="-95" rx="17" ry="50" fill="#f9a8d4" fill-opacity="0.9" transform="rotate(30)"/>
      <ellipse cx="0" cy="-95" rx="17" ry="50" fill="#a78bfa" fill-opacity="0.9" transform="rotate(60)"/>
      <ellipse cx="0" cy="-95" rx="17" ry="50" fill="#f9a8d4" fill-opacity="0.9" transform="rotate(90)"/>
      <ellipse cx="0" cy="-95" rx="17" ry="50" fill="#a78bfa" fill-opacity="0.9" transform="rotate(120)"/>
      <ellipse cx="0" cy="-95" rx="17" ry="50" fill="#f9a8d4" fill-opacity="0.9" transform="rotate(150)"/>
      <ellipse cx="0" cy="-95" rx="17" ry="50" fill="#a78bfa" fill-opacity="0.9" transform="rotate(180)"/>
      <ellipse cx="0" cy="-95" rx="17" ry="50" fill="#f9a8d4" fill-opacity="0.9" transform="rotate(210)"/>
      <ellipse cx="0" cy="-95" rx="17" ry="50" fill="#a78bfa" fill-opacity="0.9" transform="rotate(240)"/>
      <ellipse cx="0" cy="-95" rx="17" ry="50" fill="#f9a8d4" fill-opacity="0.9" transform="rotate(270)"/>
      <ellipse cx="0" cy="-95" rx="17" ry="50" fill="#a78bfa" fill-opacity="0.9" transform="rotate(300)"/>
      <ellipse cx="0" cy="-95" rx="17" ry="50" fill="#f9a8d4" fill-opacity="0.9" transform="rotate(330)"/>
    </g>

    <circle r="62" fill="none" stroke="#fde68a" stroke-width="4"/>
    <circle r="48" fill="#fbbf24" opacity="0.92"/>
    <circle r="48" fill="none" stroke="#fde68a" stroke-width="2"/>
    <circle r="20" fill="#ffffff"/>
    <circle r="9" fill="#fbbf24"/>
  </g>
</svg>
